inDegrees=yes
name=ik_lifting_orientations
DataType=double
version=3
OpenSimVersion=4.5-2024-01-10-34fd6af
endheader
time	pelvis_tilt	pelvis_list	pelvis_rotation	pelvis_tx	pelvis_ty	pelvis_tz	hip_flexion_r	hip_adduction_r	hip_rotation_r	knee_angle_r	knee_angle_r_beta	ankle_angle_r	subtalar_angle_r	mtp_angle_r	hip_flexion_l	hip_adduction_l	hip_rotation_l	knee_angle_l	knee_angle_l_beta	ankle_angle_l	subtalar_angle_l	mtp_angle_l	lumbar_extension	lumbar_bending	lumbar_rotation	arm_flex_r	arm_add_r	arm_rot_r	elbow_flex_r	pro_sup_r	wrist_flex_r	wrist_dev_r	arm_flex_l	arm_add_l	arm_rot_l	elbow_flex_l	pro_sup_l	wrist_flex_l	wrist_dev_l
0.02	0.002453053334191404	-0.01320015583859633	2.579013431586312	0	0.9399999999999999	0	43.55544517167274	-10.2821151675863	0	60.59362009812469	1.057558176414885	-5.09896151011713	0	0	43.55544517167274	-10.2821151675863	0	60.59362009812469	1.057558176414885	-5.09896151011713	0	0	0.003796298642795396	0.005145727901876534	0.001791945298370744	-0.2463469445464526	-0.0406949614272419	-0.003939927733970029	0.4872839598737964	44.94527961878436	0	0	0	-12.17619983928489	0	76.01158950543837	44.94527961878436	0	0
0.03	0.00665789209780986	0.007973390703009117	2.578212813334229	0	0.9399999999999999	0	43.59601206331877	-10.258230117885	0	60.58040983056063	1.057327613750823	-5.088635452036903	0	0	43.59601206331877	-10.258230117885	0	60.58040983056063	1.057327613750823	-5.088635452036903	0	0	-0.02500161275762892	-0.008178198160321257	-0.0002051088784328679	-0.2199368935940883	-0.05785767340962775	-0.005124098000234649	0.4989423076536837	44.94909798575887	0	0	0	-12.21804324906434	0	75.98319078940173	44.94909798575887	0	0
0.04	0.001843294649913871	-0.004463145840734611	2.582675017607605	0	0.9399999999999999	0	43.66146599221494	-10.22499715588401	0	60.55878756441236	1.056950234014793	-5.075043754383985	0	0	43.66146599221494	-10.22499715588401	0	60.55878756441236	1.056950234014793	-5.075043754383985	0	0	-0.001174907809719489	0.003642705401410475	-0.0007747832880419679	-0.2428516039061301	-0.05347973051676485	-0.01128432156977806	0.4954762303007985	44.95463096839816	0	0	0	-12.28777730724371	0	75.93736854354631	44.95463096839816	0	0
0.05	0.0002576029693517782	-0.0004918819771811744	2.577120025557055	0	0.9399999999999999	0	43.71789625461262	-10.19868560679655	0	60.53997402542873	1.056621875815577	-5.064575871612966	0	0	43.71789625461262	-10.19868560679655	0	60.53997402542873	1.056621875815577	-5.064575871612966	0	0	-0.0001221047728653553	0.00125489513178654	0.0002291192643854564	-0.237694553681975	-0.05615204616182766	-0.005728551566836665	0.4877178586247684	44.95910741931348	0	0	0	-12.34917163997472	0	75.8978628273391	44.95910741931348	0	0
0.06	-6.689029477638777e-05	0.01255145963549791	2.572483444940548	0	0.9399999999999999	0	43.81140374846107	-10.15708242455314	0	60.50861731158199	1.056074597916345	-5.048214430752106	0	0	43.81140374846107	-10.15708242455314	0	60.50861731158199	1.056074597916345	-5.048214430752106	0	0	-0.008274049005081364	-0.005522659745209398	0.00011275339271641	-0.2252262984009268	-0.07027585452118985	0.002823129358496718	0.4841372249812534	44.96626005006464	0	0	0	-12.45228170669369	0	75.8323995165613	44.96626005006464	0	0
0.07000000000000001	0.00462879275935611	0.003128723952729356	2.574907473480083	0	0.9399999999999999	0	43.86223252347812	-10.13882515270323	0	60.49121067893746	1.055770794865013	-5.041577226028481	0	0	43.86223252347812	-10.13882515270323	0	60.49121067893746	1.055770794865013	-5.041577226028481	0	0	-0.01061946774393475	-0.002537791513172817	0.002092694847887674	-0.2311591915931741	-0.05801844888336078	-0.004505264652377217	0.4889099217353463	44.96958667503328	0	0	0	-12.51105511141723	0	75.79681381119703	44.96958667503328	0	0
0.08	0.0003281598592250051	-0.0001808347777391389	2.576486820609432	0	0.9399999999999999	0	43.91031717195855	-10.12282583608571	0	60.47460058675565	1.055480894067381	-5.035892061995961	0	0	43.91031717195855	-10.12282583608571	0	60.47460058675565	1.055480894067381	-5.035892061995961	0	0	-0.0004212502840322837	0.0007200933690913488	0.00158819905758288	-0.2373939702353329	-0.05572727311658403	-0.006288087657966286	0.4877086411696667	44.97255678836256	0	0	0	-12.56777140480449	0	75.76314892744243	44.97255678836256	0	0
0.09	0.000126928149675707	0.001162549640227005	2.576660962101616	0	0.9399999999999999	0	43.99457050366185	-10.0952887041554	0	60.44541119370929	1.054971443052063	-5.026121165255095	0	0	43.99457050366185	-10.0952887041554	0	60.44541119370929	1.054971443052063	-5.026121165255095	0	0	-0.0007176824337525462	-0.000773129838178412	-0.0001235206633999759	-0.236353166727201	-0.05597554670282484	-0.005403889551458523	0.4868688046399761	44.97768289165119	0	0	0	-12.66784119676281	0	75.70416158257019	44.97768289165119	0	0
0.1	7.419654078620078e-05	4.87871694511612e-05	2.577678553444221	0	0.9399999999999999	0	44.03758205971943	-10.08418754210297	0	60.43016349258324	1.054705320464054	-5.022512329739428	0	0	44.03758205971943	-10.08418754210297	0	60.43016349258324	1.054705320464054	-5.022512329739428	0	0	0.0001072724366803308	0.0005694722433645422	-0.0002589392098975318	-0.237781120045262	-0.05592971290291349	-0.005390224992202903	0.4877233158091269	44.97988684261484	0	0	0	-12.72165055449527	0	75.67404759224729	44.97988684261484	0	0
0.11	-0.003320293552303642	0.002628081824579106	2.578097684639962	0	0.9399999999999999	0	44.1070056304544	-10.06675782170352	0	60.40545590136074	1.054274091646984	-5.016873501271193	0	0	44.1070056304544	-10.06675782170352	0	60.40545590136074	1.054274091646984	-5.016873501271193	0	0	0.004866606879962735	0.0005572877052286612	-0.001109244549756516	-0.2403026862747554	-0.05890838170456444	-0.007872053462137804	0.4891589823845986	44.98336572123912	0	0	0	-12.80930520221142	0	75.62544142537362	44.98336572123912	0	0
0.12	0.003582878768332331	-0.0007431075781145686	2.577250200639114	0	0.9399999999999999	0	44.14687761993169	-10.05823387508148	0	60.39103933244908	1.054022475052635	-5.014273320977907	0	0	44.14687761993169	-10.05823387508148	0	60.39103933244908	1.054022475052635	-5.014273320977907	0	0	-0.005081629805777653	-0.0004394557597426987	-0.0004482173002693626	-0.2361658189469159	-0.05346326930145707	-0.004808292266243083	0.4876335770738833	44.98514269518666	0	0	0	-12.86148494500795	0	75.59752508137328	44.98514269518666	0	0
